@startuml


' Animals class diagram

class Animal {
  - name: String
  - age: int
  + Animal(name: String, age: int)
  + walk(): void
  + eat(food: String): void
  + makeSound(): void
}

class Dog {
  + bark(): void
}

class Bird {
  + fly(): void
  + walkShortDistance(): void
  + ladddd(): void
  + hhhh(): void
}

class AnimalController {
  + makeAllWalk(animals: List<Animal>): void
  + allWalked(): void
  + eatother(): void
  + eatother2(): void
  + eachother3(): void
  + eachother5(): void
  + lala(): void
}

class Owner {
  + startWalks(): void
}

interface Walkable {
  + walk(): void
}

interface Walk2 {
  + walk2() : void
}

Animal <|-- Dog
Animal <|-- Bird
Animal ..|> Walkable 
Dog ..|> Walkable
Bird ..|> Walkable
Walkable --> Walk2
Owner --> AnimalController : uses
AnimalController ..> Animal : operates on

note left of Animal : common attributes\nand behaviors for all animals

@enduml
